<?xml version="1.0" encoding="UTF-8"?>
<svg id="Layer_2" xmlns="http://www.w3.org/2000/svg" version="1.1" viewBox="0 0 96 96">
  <!-- Generator: Adobe Illustrator 29.5.1, SVG Export Plug-In . SVG Version: 2.1.0 Build 141)  -->
  <defs>
    <style>
      .st0 {
        fill: #fff;
      }
    </style>
  </defs>
  <path d="M77.9,85.5H17.96c-3.83-.8-6.67-3.61-7.46-7.46V18.1c.8-3.91,3.82-6.95,7.82-7.45h59.07c4.17.4,7.53,3.81,7.97,7.96v59.07c-.33,3.65-3.8,7.38-7.46,7.82ZM18.8,16.53c-1.4.34-2.32,1.35-2.45,2.81v57.47c.15,1.64,1.35,2.79,3,2.85h57.32c1.64-.15,2.79-1.35,2.85-3V19.34c-.14-1.59-1.26-2.71-2.85-2.85l-57.87.04Z"/>
  <path class="st0" d="M17.96,85.5h-7.46v-7.46c.78,3.85,3.62,6.66,7.46,7.46Z"/>
  <path d="M72.2,72.49h-10.09v-17.92c-.22-3.85-1.29-7.12-5.78-6.94s-5.77,3.45-6.07,7.38v17.48h-9.94v-33.04h9.94v4.39l2.12-2.48c7.88-5.57,19.58-1.98,19.66,8.7l.15,22.44h.01Z"/>
  <rect x="23.66" y="39.45" width="10.23" height="33.04"/>
  <path d="M28.01,22.96c8.14-1.12,9.39,11.03,1.7,11.93s-9.23-10.9-1.7-11.93Z"/>
</svg>