<?xml version="1.0" encoding="UTF-8"?>
<svg id="Layer_4" xmlns="http://www.w3.org/2000/svg" version="1.1" viewBox="0 0 96 96">
  <!-- Generator: Adobe Illustrator 29.5.1, SVG Export Plug-In . SVG Version: 2.1.0 Build 141)  -->
  <path d="M85.5,29.58v37.09l-.77,3.83c-1.92,6.81-7.42,12.32-14.24,14.24l-3.83.77H29.58c-10.08-1-18.18-9.2-18.84-19.34.58-11.86-.76-24.44,0-36.22.66-10.09,9.11-18.55,19.2-19.2,11.78-.76,24.35.57,36.22,0,9.91.56,18.57,8.9,19.34,18.84h0ZM29.69,17.5c-6.43.69-11.84,6.24-12.24,12.73-.73,11.7.57,24.15,0,35.93.54,6.08,5.14,11.17,11.1,12.41,13,.35,26.15.35,39.15,0,5.42-1.13,9.74-5.45,10.88-10.88.35-13,.35-26.15,0-39.15-1.23-5.91-6.25-10.48-12.27-11.09l-36.6.04h-.02Z"/>
  <path d="M46.63,28.89c15.12-1.13,25.7,14.95,18.45,28.38-6.84,12.68-24.88,13.63-32.94,1.64s-.15-28.92,14.49-30.02ZM46.48,35.61c-4.72.48-9.11,4.33-10.44,8.83-3.53,11.89,10.43,21.29,20.03,13.46s3.17-23.59-9.59-22.29Z"/>
  <path d="M68.2,23.24c6.17,0,6.34,9.08.73,9.7-7.05.78-7.44-9.7-.73-9.7Z"/>
</svg>