<?xml version="1.0" encoding="UTF-8"?>
<svg id="Layer_1" xmlns="http://www.w3.org/2000/svg" version="1.1" viewBox="0 0 1000 1000">
  <!-- Generator: Adobe Illustrator 29.5.1, SVG Export Plug-In . SVG Version: 2.1.0 Build 141)  -->
  <path d="M311.19,268.14c1.28-2.21-.35-12.37,3.53-18.01,4.43-6.45,16.03-8.48,21.53-12.89,4.06-3.25,7.62-11.44,11.11-15.67,4.55-5.51,16-14.14,22.26-17.9,6.68-4,42.3-17.11,49.38-17.6,6.17-.43,16.06,2.54,22.88,2.94,15.87.93,32.1-2.08,46.78-1.85,13.14.2,28.88,5.55,42.19,6.7,4.08,1.25,8.9-6.66,11.27-6.62,10.85,1.99,19.51,9.89,29.36,13.67,5.92,2.27,11.86,2.75,17.68,5.27,3.42,1.48,7.96,5.48,10.95,6.26,6.3,1.64,12.37-1.77,15.42,7.07,3.57-.26,4.74-3.82,8.78-2.64,3.3.97,6.8,10.87,10.92,12.07,5.9,1.73,14.3-2.55,18.98.15,4.38,2.52,11.3,12.67,16.2,16.31,4.4,3.26,10.46,4.62,14.84,8.11,7.57,6.03,12.43,17.35,18.61,24.42,3.86,4.42,9.01,6.82,12.89,11.01,8.62,9.33,7.75,21.25,13.55,32.35,7.35,14.09,16.2,16.06,16.16,34.6,0,2-1.15,4.07-.99,5.66.18,1.76,2.46,3.04,1.93,5.65-.13.63-1.75.49-1.93,1.25-2.61,11.1-2.66,7.97-7.83,16.88-11.56,19.95-26.06,65.24-27.6,88.11-.87,12.9,1.37,24.15,1.94,36.39.63,13.76-6.42,27.28-10.23,40.43-1.72,5.92-2.02,12.56-3.9,18.1-3.63,10.71-14.55,22.05-22.64,29.95-7.04,6.88-15.42,12.68-22.14,19.99-10.06-3.88-8.71-22.1-12.34-27.61-.6-.91-3.62-2.52-4.24-1.96-.86,5.27-2.06,10.5-2.86,15.79-6.33,41.42-21.56,92.09-55.96,119.03-1.97,1.54-12.78,8.22-14.54,8.47-2.73.4-3.89-1.41-2.67-3.7.37-.69,9.66-8.38,11.55-10.45,5.45-5.95,12.5-15.97,15.59-23.62,6.36-15.79-7.17-15.4-12.69-25.27-5.02-8.97-1.55-23.48-.55-33,.33-3.14-.94-8.14.12-11.29.68-2.01,5.45-.79,5.68-6.83.15-4.02-3.19-5.03,2.87-6.77l-5.72-38.24-6.79-1.34c1.01-4.97-1.85-8.49-6.19-10.54l-10.6,7.66,1.5,4.77c-10.41.4-19.94,5.76-30.21,7.56-8.72,1.53-21.71,3.26-30.5,3.91-2.38.18-4.79-.06-7.16,0,2.69-2.83-1.39-19.09-3.35-19.1-3.24,3.6-10.59,8.84-6.86,14.03,1.45,2.02,6.58,2.31,5.43,6.03l-16.25-.96c.17-10.48,7.65-15.68,14.33-22.48.15-.71-.98-.64-1.41-.46-5.99,2.51-16.18,8.33-19.47,14-.95,1.63-3.55,10.64-3.78,12.5-.22,1.7.84,3.37.71,5.38-.09,1.35-1.31,9.6-3.82,6.7-4.1-4.74-5.61-1.97-10.52-4.78.35-12.7,6.95-26.26,8.43-38.35,1.05-8.66-2.32-5.49-4.07-9.76-2.36-5.74.27-9.24-.65-12.69-1.22-4.63-8.3-12.33-10.28-17.52-1.87-4.89-4.03-15.76-4.7-21.12-.19-1.55-1.32-7.39.36-7.99,1.83-.65,1.62,1.52,2.11,2.61,6.91,15.58,8.65,27.16,17.51,43.72,1.33,2.49,2.87,9.29,5.7,10.62,1.21.57,2.5-.54,3.39-.38,6.97,1.23,5.41-.12,11.89-1.6,18.4-4.19,16.33.08,31.73,4.62,4.6,1.36,10.33,1.7,15.13,3.03,3.8,1.05,13.9,5.94,16.52,5.31,2.88-3.17,3.88-7.68,6.41-11.04,3.97-5.28,10.98-7.69,14.33-13.4-7.55-4.85-16.25-.88-24.41-1.39-9.7-.61-30.33-17.32-37.73-24.4-2.71-2.6-13.26-14.49-14.32-17.24-.55-1.44.24-1.51,1.44-1.45,6.84.35,17.06,13.92,23.4,17.25,1.2-1.43-11.23-19.65-11.47-23.51-.29-4.6,5.07-3.74,5.68-5.77.36-1.17-1.05-3.66-.93-5.58.2-3.25,1.51-6.64,1.39-10.22-.17-5.07-2.28-9.71-3.22-14.6l2.18-1.37,17.4,11.32c2.28.68,1.63-5.74,1.44-7.18-.96-7.4-15.21-21.53-18.15-29.65l-6.73-1.41.95,16.26c-2.72-.73-11.39-17.39-14.32-14.34-.88,8.81,7.7,15.58,9.86,23.12,1.11,3.89,1.31,9.13,1.59,13.22-7.77-5.7-11.12-15.3-16.92-22.7-.61-.78.03-1.76-2.18-1.21-.61,8.04,1.97,16.37.95,24.4-.17,1.33-.51,2.76-1.9,1.41l-12.42-24.4c-1.98-2.26-10.95-6.77-13.92-7.13-1.66-.2-1.44-.1-1.43,1.43.04,5.18,4.01,11.02,1.05,16.3-7.6,2.71-12.9-4.36-20.13-3.4l3.33,10.53c-6.9-.13-8.02-2.75-12.42-5.75-7.97-5.43-9.44-2.41-9.11,6.25.45,11.96,3.15,24.65,2.9,36.78,1.74-1.74,8.3,4.78,8.51,5.42,1.1,3.41-3,7.68-2.76,11.18.44,6.56,8.72,18.5,9.56,25.94-.95,1.57-2.13-.22-2.86-.97-6.61-6.75-10.36-17.6-17.22-24.36l-1.92,30.13,4.78,12.9c-1.45,1.38-6.74-6.15-7.48-7.33-2.25-3.62-3.9-7.96-5.2-12.01l-16.49-73.4-2.4-.52c-2.35,4.18-7.71,7.07-9.93,11.1-3.49,6.33-5.54,17.75-8.43,25.04-3.74,9.46-8.74,20.28-14.29,28.74-4.73,7.2-14.35,15.16-11.25,24.54,4.29-.05,7.49-3.74,11.89-3.8,2.95-.04,14.72,1.52,17.95,2.14,2.79.54,14.15,5.85,15.56,3.63.63-1-2.49-20.3-2.43-23.46,1.43-10.85,2.17-22.65,5.01-33.25.48-1.79,1.76-4.67,3.59-5.49-.21,5.86.33,11.82,0,17.68-.69,12.21-4.91,26.7-.5,38.8.44,1.2,8.07,8.55,9.91,11.1,15.69,21.78,18.76,45.45,13.28,71.3-3.67,17.3-16.41,36.64,6.98,45.19,11.31,4.14,17.13,2.06,28.19.51,5.75-.8,12.63.94,16.52-5.41-.6-2.97-2.03-5.19-1.78-8.46.23-3.04,2.46-4.64,2.56-5.75.13-1.42-4.31-10.05.84-10.05,5.41,6.09,8.81,8.82,9.11,17.75.16,4.61-1.32,4.36-2.34,7.2-1.16,3.25-.77,6.84-4.76,8.63-9.38,4.21-16.41-2.73-24.72,2.75-.89.59-1.25,2-2.27,2.72-9.06,6.38-19.41,1.86-28.61,2.98-2,.24-3.14,1.65-4.52,1.72-2.07.09-6.23-2.65-6.42,2.15,4.32,1.99,9.28,2.34,13.64,4.06,6.41,2.52,14.14,8.5,21.25,8.48,3.92-.01,5.55-2.4,8.65-2.9,7.43-1.18,16,1.09,22.84.93s18.63-3.49,25.99-4.68c10.5-1.71,20.08-.54,29-8.26l-36.31-30.12c7.89-1.27,13.18,4.03,19.02,8.22,5.78,4.14,32.63,24.19,34.08,29.05,1.09,3.66.33,10.71-2.91,13.39-5.5-3.56-1.01-13.76-9.78-10.73-2.53.87-20.35,11.29-22.28,13.1-6.09,5.71-8.59,15.62-13.32,21.1s-33.56,19.74-40.78,20.23c-4.81.33-12.99-.98-18.2-1.24-6.63-.33-14.19,1.19-20.67-3.18-2.25-1.52-4.17-8.42-8.32-5.78-.98-10.47-12.96-26.73-21.51-32.53-2.21-1.5-5.4-2.12-7.84-3.63-2.71-1.68-9.08-7.1-11.49-7.64-4.55-1.03-14.65,1.87-14.7,6.95-.03,3.01,15.37,29.62,18.27,33.48,9.33,12.43,22.23,16.27,32.45,28.74,7.82,9.54,17.68,28.98,28.03,35.08,6.39,3.76,34.86,10.06,42.16,9.26,4.68-.52,17.02-4.27,21.6-6.12,9.18-3.72,17.16-11.49,26.78-13.84-10.53,12.94-31.54,22.41-47.59,26.5-11.12,2.83-12.42,1.95-23.15-1.17-23.78-6.91-25.66-13.68-42.17-28.59-16.34-14.75-29.69-25.54-43.85-43.16-11.24-13.99-27.35-33.95-35.89-49.21-18.8-33.59-12.24-72.72-19.84-110.22-3.78-18.63-9.26-14.76-18.7-27.2-2.04-2.68-4.58-7.11-6.08-10.18-1.65-3.36-5.98-17.87-6.64-18.69-.11-.14-2.22.96-2.75-.64-.19-1.1,1.61-1.96,1.5-3.39-.31-4.04-6.51-18.63-7.91-24.6-3.14-13.39-4.82-26.91-2.88-40.58,1.17-8.24,4.74-17.11,5.46-25.14,1.5-16.77.05-34.87-.02-51.59-.05-11.66-1.26-19.48,4.4-30.11,6.33-11.89,20.39-24.52,25.45-35.75,3.06-6.81,3.22-15.8,6.69-22.95,3.66-7.55,12.44-15.08,15.85-20.95ZM354.44,284.63c-9.68-1.94-14.05,9.62-19.6,15.29-2.3,2.35-6.71,4.79-9.09,7.17-18.08,18.05-35.25,36.59-43,61.7,3.42-2.91,7.14-6.13,9.95-9.64,9.93-12.44,11.17-23.9,24.95-34.33,12.05-9.12,13.21-12.61,22.92-22.98,5.4-5.77,12.41-8.45,13.87-17.19ZM330.54,322.88c-1.87-1.75-13.08,9.46-14.36,11.92-1.88,3.6-1.28,6.01-2.42,9.05-4.11,10.98-15.06,25.74-20.67,36.71-.48.93-3,7.03-2.69,7.34,5.35.22,6.65-7.44,8.51-9.9.78-1.03,2.85-.57,3.48-1.5.91-1.36-.03-3.7.58-4.7.17-.28,2.9-.79,4.49-2.68,2.49-2.98,6.92-13.63,8.91-17.86,4.52-9.62,7.45-19.63,14.17-28.37ZM338.09,346.88c-.97-1.57-8.84,2.31-10.34,3.32-8.57,5.76-9.04,12.98-13.44,20.98-2.88,5.23-15.26,19.09-15.4,22.96-.3,8.54,12.92,7.92,18.75,10.93s11.12,9.32,15.27,14.37c1.94.4,1.17-.49,1.62-1.23,3.63-5.9,14.86-28.76,15.13-34.68.33-7.2-10.82-16.11-12.25-23.13-.93-4.56,1.66-8.95.65-13.54ZM307.92,575.63c-2.03,5.97.83,22,3.33,28.1,1.57,3.83,4.39,6.77,5.93,10.32,6.64,15.31-4.57,30.45,1.85,48.83,1,2.88,7.1,14.14,9.24,15.62,4.21,2.94,11.24,2.33,15.91.86,10.43-10.92,18.93-23.96,30.29-33.82l3.85.57,1.98-9.91c-4.33-1.26-5.34-8.68-9.62-7.32l-.65-11.06,14.02-12.84c-2.97.07-3.91,3.33-6.43,4.55-9.32,4.53-43.99.62-51.88-7.92-7.57-8.18-2.7-7.72-1.17-13.62,1.6-6.2-5.24-5.42-8.28-9.42l1.79-8.98c-.3-.34-7.24,2.22-7.97,2.81-.15.12-2.15,3.02-2.21,3.21ZM342.29,570.85c-1.12,1.06-3.57,6.01-2.73,7.35,2.66,1.65,5.77,5.54,9.17,3.39,1.42-.9-2.07-9.75-1.44-12.01-.77-1.45-4.36.66-5,1.27ZM362.08,407.99c-4.01,3.85-5.34,10.59-7.77,15.64-3.42,7.11-8.8,14.03-9.37,22.27-.31,4.44,2.1,18.47,3.06,23.52.51,2.68,1.22,6.28,3.1,8.36,2.73-.12,14.52-26.74,14.76-31.2.2-3.6-2.31-8.27-2.81-12.3-1.05-8.43-.85-17.79-.97-26.29ZM345.83,594.48c.71,8.72,14.67,5.58,21.55,5.69,9.28.15,15.87,3.96,17.65-9.52-13.91-3.57-25.75,1.95-39.2,3.83ZM383.12,568.64c-3.74-5.4-10.84-8.16-17.21-8.59,2.63,1.95,6.94,4.54,9.87,5.9,2.19,1.02,4.98,2.14,7.34,2.69ZM382.17,584.91c3.45.27,8.14-2.41,4.28-5.73-1.73-.34-5.06,3.74-4.28,5.73ZM414.67,710.2v1.9h.94v-1.9h-.94ZM433.66,716.77c1.52-7.89-6.94-9.24-11.85-4.7.11,7.1,6.61,6.72,11.85,4.7ZM438.57,712.11c-2.64,7.13,13.21,7.15,14.21,4.17,2.06-6.15-3.61-11.1-9.81-6.95-1.77,1.19-1.75,4.43-4.39,2.78ZM457.95,711.64l2.26,2.23c2.69.64,8.25-6.96,7.56-8.47l-2.75-1.74c-4.53,1.22-5.69,3.84-7.08,7.98ZM459.88,723.86c-1.05,1.25-1.34,2.91-1.24,4.5,1.31,1.31,11.87-4.78,12.42-7.64-3.37-.52-8.93.44-11.18,3.14ZM483.49,697.76c-7.16-2.02-12.95,6.54-5.68,9.04,4.62,1.59,5.91-5.56,5.68-9.04ZM505.47,411.81c-1.74-12.38-7.14-19.14-20.07-20.07,6.5,6.95,14.15,12.46,20.07,20.07ZM533.2,384.07c-1.8.38-2.3-.9-3.26-1.99-3.42-3.89-5-9.85-8.67-14.28-6.39-7.71-13.92-8.64-23.43-9.08,3.82,6.22,9.13,11.55,12.6,18,3.1,5.78,4.45,15.56,10.62,18.06,1.27.51,5.77,1.71,6.78,1.51,1.57-.32,4.68-5.32,8.91-.45,4.86,5.59,2.62,2.82,8.87,5.93,3.34,1.67,7.21,4.54,10.55,5.75,4.06,1.47,9.1.68,13.34,2.37l-2.73-13.23,5.14-2.99,7.15,6.66v-7.17c1.98-1.93,2.03,1.09,3.3,2.41,3.8,3.97,7.8,7.91,12,11.46-.98-6.35-5.2-14.88-9.14-20.02-1.7-2.22-14.33-13.18-16.44-14.15-4.44-2.03-17.89-.14-21.24,4.07-.58,2.68,18.18,10.06,19.11,14.79l-21.32-6.91-10.72-8.37c-2.81-1.19-.77,6.88-1.43,7.64ZM502.61,566.75h-1.9v.94h1.9v-.94ZM512.17,276.02c6.13,12.57,4.3,8-6.24,8.61-1.08.06-2.62-.64-2.36.94,3.57,1.11,6.08,3.9,9.57,5.26,4.71,1.83,11.21,1.83,15.5,3.62,2.92,1.22,19.2,15.75,17.76,5.25-.68-4.99-9.16-18.55-13.23-21.26-1.68-1.11-15.9-4.45-17.56-4.33-.3.02-1.23,2.96-3.44,1.91ZM511.21,420.42c-.66,3.02,2.19,4.76,3.06,6.98,4.28,10.86,1.12,10.43,13.21,15.47,4.93,2.06,10.32,3.24,15.27,5.27.9-.99-4.75-21.13-6-22.69-2.9-3.59-20.55-7.14-25.54-5.04ZM519.83,325.74c1.77,7.61,6.61,12.25,11.5,17.7.74.83.64,2.56,1.17,3.09.68.67,9.04,4.01,11.17,5.57,2.88,2.12,4.74,5.19,8,7.3,2.4,1.55,22.68,10.25,23.6,9.37l-8.65-14.76c-16.88-7.78-26.99-25-46.78-28.26ZM521.92,404.37c.6,7.06,11.53,16.16,17.94,9.85.06-.81-9.74-12.1-10.5-12.42-2.66-1.13-7.8-1.55-7.45,2.57ZM577.17,336.25c-.35-2.89-1.28-7.61-3.46-9.44-4.57-3.85-9.92-3.37-14.42-5.66-2.7-1.38-7.27-6.82-9.71-7.36-1.99-.43-6.21,1.2-8.73.48l16.88,12.27,19.44,9.71ZM583.88,288.45c1.06,8.62,10.48,9.82,16.19,13.92,7.68,5.52,11.61,15.67,23.96,13.8-2.93-4.47-8.17-6.88-11.98-10.48-3.3-3.12-8.1-10-11.01-11.93-1.95-1.29-16.36-6.07-17.16-5.3ZM592.48,380.26c-.19,14.7,13.63,24.09,11.65,39.5l12.23,16.92c-.28-2.42,1.21-4.85,1.06-7.19s-2.01-3.35-2.04-4.76c-.02-.74,2.14.46,1.91-2.72-.53-7.17-7.62-27.27-12.37-32.7l-12.44-9.06ZM653.65,427.11c.1-2,.07-3.98-.24-5.97-1.41-9.26-9.19-38.21-14.12-45.17-10.31-14.58-16.58-12.94-31.49-19.18-5.18-2.17-9.88-5.58-15.33-7.13,5.27,6.47,13.8,9.43,20.09,14.8,2.97,2.54,18.39,19.2,20.09,21.98,3.3,5.38,6.01,16.59,9.36,23.15,3.03,5.95,7.22,12.48,11.63,17.52ZM609.69,335.31c4.17,9.27,12.72,14.08,21.98,17.2l-9.99-14.38-11.99-2.82ZM632.61,436.68c-1.91.36-1.57,2.01-1.9,3.35-3.57,14.33-4.02,27.79-.05,42.13.36,1.31.12,2.97,1.95,3.3l3.53-37.65-3.53-11.12ZM653.61,334.38l-13.31,4.26c4.32,7.55,10.09,15.79,16.73,21.5.88.76,6.49,5.47,7.14,4.8-.74-11.86-5.79-20.37-10.56-30.56ZM652.71,501.72l-7.65,23.9c2.6.57,1.63-.78,2.36-1.9,3.01-4.58,6.48-9.16,7.01-14.82l-1.72-7.17ZM669.9,575.35c1.81,2.17-12.02,20.97-12.94,24.86-.77,3.29,1.48,5.67,3.69,2.66,4.61-6.28,7.89-13.73,12.69-19.79.55-.7,14.84-14.89,10.44-13.46-2.77,1.89-5.45,4.36-9.09,3.81,1.1-3.88,9.28-15.51,8.47-18.42-.31-1.11-1.53-1.79-2.26-2.59-3.14,2.05-2.98,7.4-4.79,9.53-1.66,1.96-5.28,1.78-7.13,3.39-2.47,2.15-2.74,7.89-8.63,7.16l.96,7.64,8.59-4.78ZM706.6,306.26c-3.37-3.72-6.17-4.92-8.96-7.78-3.77-3.86-6.11-11.43-9.64-15.22s-11.9-5.22-17.13-5.33c14.77,9.57,22.48,24.64,33.08,38.15,4.17,5.32,8.39,10.7,13.29,15.4,1.25-.62.03-2.62-.22-3.61-2.02-7.94-5.05-15.68-10.42-21.61ZM689.02,548.56c1.73-4.47,2.62-9.99,4.32-14.33,2.9-7.41,11.37-16.97,2.83-24.86-11.73,8.93-10.81,21.43-8.77,34.62.17,1.12.24,4.64,1.62,4.58Z"/>
</svg>